<svg xmlns="http://www.w3.org/2000/svg" width="1800" height="1340" viewBox="150 380 1800 1340">
  <g transform="scale(1.75)" fill="#806daf">
    <path fill-rule="evenodd" d="
      M 133 414
      Q 117 416 110 430
      L 104 455
      Q 104 479 109 503
      L 118 544
      Q 120 551 128 553
      C 163 560 183 585 186 615
      C 188 648 173 675 139 694
      Q 130 699 130 709
      L 140 779
      Q 142 789 152 789
      L 364 750
      Q 376 748 376 737
      L 376 391
      Q 376 380 365 379
      L 133 414
      Z

      M 306.50 440.47
      a 21.49 21.49 0 1 0 42.98 0
      a 21.49 21.49 0 1 0 -42.98 0
      Z

      M 310.10 519.07
      a 21.90 21.90 0 1 0 43.80 0
      a 21.90 21.90 0 1 0 -43.80 0
      Z

      M 312.45 598.07
      a 21.28 21.28 0 1 0 42.56 0
      a 21.28 21.28 0 1 0 -42.56 0
      Z

      M 315.46 679.13
      a 21.32 21.32 0 1 0 42.64 0
      a 21.32 21.32 0 1 0 -42.64 0
      Z
    "/>

    <path d="M 976.04 964.30 C 967.55 964.40, 958.93 964.37, 950.50 963.44 C 942.07 962.50, 933.83 960.31, 925.46 958.68 C 917.09 957.04, 908.56 955.58, 900.27 953.65 C 891.98 951.73, 883.68 950.00, 875.71 947.12 C 867.73 944.25, 860.18 939.95, 852.41 936.40 C 844.65 932.85, 836.39 930.14, 829.11 925.85 C 821.83 921.56, 815.48 915.85, 808.73 910.66 C 801.98 905.46, 795.20 900.14, 788.63 894.68 C 782.06 889.22, 775.47 883.77, 769.32 877.89 C 763.18 872.02, 757.38 865.82, 751.78 859.45 C 746.18 853.07, 740.91 846.38, 735.71 839.63 C 730.51 832.88, 725.56 825.91, 720.58 818.96 C 715.61 812.02, 710.77 804.95, 705.86 797.95 C 700.95 790.96, 696.05 783.97, 691.12 777.00 C 686.20 770.03, 681.26 763.09, 676.33 756.14 C 671.39 749.20, 666.44 742.26, 661.50 735.33 C 656.55 728.39, 651.60 721.45, 646.67 714.50 C 641.73 707.55, 636.79 700.61, 631.88 693.62 C 626.96 686.64, 622.13 679.62, 617.18 672.60 C 612.23 665.58, 606.67 654.94, 602.20 651.49 C 597.72 648.04, 592.75 647.39, 590.32 651.89 C 587.90 656.40, 588.13 669.80, 587.65 678.51 C 587.18 687.21, 587.37 695.62, 587.45 704.10 C 587.53 712.58, 587.95 720.92, 588.13 729.39 C 588.31 737.86, 588.46 746.38, 588.54 754.92 C 588.62 763.46, 588.63 772.05, 588.63 780.62 C 588.62 789.18, 588.55 797.76, 588.51 806.30 C 588.46 814.85, 588.37 823.37, 588.35 831.89 C 588.34 840.40, 588.32 848.90, 588.41 857.41 C 588.49 865.92, 588.91 874.40, 588.85 882.94 C 588.79 891.48, 589.39 900.39, 588.03 908.65 C 586.67 916.90, 585.38 926.22, 580.67 932.49 C 575.96 938.76, 567.44 943.54, 559.76 946.25 C 552.09 948.95, 543.05 948.49, 534.62 948.70 C 526.18 948.91, 517.68 947.75, 509.16 947.48 C 500.65 947.20, 492.07 947.12, 483.53 947.05 C 474.98 946.97, 466.43 947.06, 457.92 947.02 C 449.40 946.98, 440.99 947.11, 432.44 946.81 C 423.90 946.51, 412.36 948.75, 406.65 945.24 C 400.95 941.73, 399.58 933.43, 398.21 925.78 C 396.83 918.13, 398.30 908.02, 398.40 899.34 C 398.51 890.66, 398.70 882.19, 398.84 873.68 C 398.98 865.17, 399.14 856.76, 399.25 848.29 C 399.36 839.81, 399.43 831.32, 399.48 822.82 C 399.53 814.32, 399.55 805.80, 399.56 797.28 C 399.57 788.75, 399.56 780.21, 399.54 771.68 C 399.53 763.14, 399.50 754.59, 399.47 746.04 C 399.45 737.50, 399.42 728.94, 399.40 720.40 C 399.38 711.85, 399.37 703.31, 399.37 694.76 C 399.37 686.22, 399.38 677.68, 399.40 669.15 C 399.42 660.61, 399.45 652.08, 399.48 643.55 C 399.51 635.02, 399.55 626.49, 399.59 617.96 C 399.63 609.43, 399.68 600.91, 399.73 592.38 C 399.78 583.86, 399.84 575.33, 399.89 566.81 C 399.94 558.28, 400.00 549.76, 400.05 541.24 C 400.10 532.71, 400.16 524.19, 400.21 515.66 C 400.26 507.14, 400.31 498.61, 400.35 490.09 C 400.39 481.56, 400.43 473.03, 400.46 464.50 C 400.50 455.97, 400.52 447.44, 400.54 438.91 C 400.56 430.37, 400.57 421.84, 400.57 413.30 C 400.58 404.76, 400.57 396.22, 400.56 387.68 C 400.55 379.14, 400.53 370.60, 400.52 362.06 C 400.51 353.53, 400.49 344.99, 400.49 336.46 C 400.48 327.93, 400.47 319.40, 400.47 310.87 C 400.47 302.35, 400.51 293.88, 400.49 285.33 C 400.48 276.77, 398.91 267.08, 400.35 259.55 C 401.79 252.01, 403.37 243.89, 409.14 240.10 C 414.90 236.31, 426.39 237.42, 434.95 236.79 C 443.51 236.17, 451.98 236.37, 460.50 236.35 C 469.03 236.33, 477.56 236.67, 486.09 236.67 C 494.63 236.67, 503.18 236.30, 511.71 236.34 C 520.24 236.39, 528.85 236.01, 537.27 236.92 C 545.69 237.84, 554.76 238.66, 562.24 241.82 C 569.72 244.98, 578.40 249.33, 582.15 255.88 C 585.89 262.43, 584.27 272.66, 584.69 281.12 C 585.11 289.59, 584.65 298.17, 584.65 306.69 C 584.65 315.22, 584.64 323.74, 584.68 332.27 C 584.73 340.80, 584.83 349.34, 584.92 357.87 C 585.02 366.40, 585.15 374.93, 585.25 383.47 C 585.35 392.00, 585.47 400.53, 585.55 409.06 C 585.62 417.58, 585.69 426.11, 585.70 434.63 C 585.71 443.15, 585.65 451.66, 585.61 460.19 C 585.56 468.71, 585.45 477.22, 585.45 485.77 C 585.44 494.31, 585.04 502.89, 585.59 511.45 C 586.13 520.01, 585.61 533.54, 588.72 537.11 C 591.84 540.68, 599.14 537.04, 604.28 532.88 C 609.42 528.72, 614.47 519.03, 619.56 512.14 C 624.65 505.25, 629.71 498.40, 634.81 491.55 C 639.90 484.70, 645.01 477.87, 650.11 471.04 C 655.22 464.21, 660.34 457.39, 665.46 450.57 C 670.57 443.74, 675.70 436.93, 680.81 430.10 C 685.93 423.28, 691.05 416.45, 696.17 409.63 C 701.29 402.80, 706.41 395.97, 711.52 389.14 C 716.64 382.31, 721.75 375.48, 726.87 368.65 C 731.98 361.82, 737.09 354.98, 742.20 348.15 C 747.31 341.31, 752.42 334.48, 757.52 327.64 C 762.63 320.80, 767.73 313.97, 772.83 307.13 C 777.93 300.29, 783.02 293.45, 788.12 286.61 C 793.22 279.77, 798.12 272.76, 803.42 266.10 C 808.72 259.44, 813.20 251.30, 819.93 246.64 C 826.65 241.98, 835.57 240.17, 843.76 238.14 C 851.95 236.12, 860.60 235.11, 869.07 234.50 C 877.54 233.90, 886.05 234.50, 894.57 234.52 C 903.10 234.55, 911.67 234.69, 920.22 234.64 C 928.78 234.60, 937.36 234.24, 945.89 234.24 C 954.42 234.23, 962.92 234.25, 971.40 234.62 C 979.88 235.00, 988.23 235.79, 996.78 236.50 C 1005.32 237.20, 1016.94 235.64, 1022.67 238.86 C 1028.40 242.07, 1032.56 249.50, 1031.15 255.78 C 1029.73 262.05, 1019.82 269.95, 1014.18 276.50 C 1008.54 283.04, 1002.96 288.79, 997.31 295.03 C 991.66 301.27, 985.97 307.61, 980.27 313.95 C 974.56 320.29, 968.80 326.71, 963.08 333.07 C 957.35 339.42, 951.62 345.77, 945.91 352.10 C 940.19 358.43, 934.47 364.75, 928.76 371.07 C 923.05 377.39, 917.35 383.69, 911.65 390.01 C 905.95 396.33, 900.26 402.64, 894.56 408.97 C 888.87 415.29, 883.18 421.62, 877.49 427.95 C 871.79 434.28, 866.09 440.62, 860.38 446.96 C 854.67 453.29, 848.96 459.63, 843.22 465.96 C 837.49 472.30, 831.70 478.63, 825.97 484.96 C 820.23 491.29, 814.43 497.61, 808.80 503.93 C 803.17 510.24, 798.00 516.52, 792.20 522.85 C 786.39 529.17, 778.54 535.22, 773.98 541.88 C 769.42 548.54, 764.30 555.58, 764.85 562.81 C 765.41 570.05, 772.78 578.13, 777.33 585.32 C 781.88 592.51, 787.36 598.97, 792.15 605.98 C 796.94 612.99, 801.44 620.21, 806.08 627.39 C 810.71 634.56, 815.22 641.91, 819.95 649.03 C 824.68 656.16, 829.53 663.18, 834.46 670.14 C 839.38 677.10, 844.44 683.94, 849.50 690.79 C 854.56 697.64, 859.71 704.41, 864.84 711.22 C 869.96 718.03, 875.12 724.82, 880.25 731.64 C 885.38 738.46, 890.46 745.33, 895.63 752.13 C 900.80 758.93, 905.96 765.76, 911.27 772.43 C 916.58 779.11, 921.94 785.75, 927.51 792.19 C 933.07 798.63, 938.79 804.94, 944.68 811.08 C 950.57 817.22, 956.75 823.07, 962.85 829.03 C 968.94 834.99, 975.14 840.87, 981.25 846.85 C 987.35 852.82, 993.20 859.11, 999.45 864.89 C 1005.71 870.67, 1012.04 876.30, 1018.75 881.52 C 1025.47 886.74, 1032.65 891.49, 1039.75 896.20 C 1046.85 900.92, 1053.70 906.12, 1061.33 909.82 C 1068.97 913.52, 1079.62 914.15, 1085.54 918.41 C 1091.46 922.66, 1098.41 930.07, 1096.86 935.35 C 1095.30 940.64, 1083.64 946.17, 1076.21 950.12 C 1068.78 954.07, 1060.45 957.03, 1052.27 959.03 C 1044.10 961.03, 1035.63 961.47, 1027.16 962.11 C 1018.68 962.75, 1009.94 962.49, 1001.42 962.86 C 992.90 963.22, 984.53 964.20, 976.04 964.30 Z"/>
  </g>
</svg>
