<svg id="svg" version="1.1" xmlns="http://www.w3.org/2000/svg" xmlns:xlink="http://www.w3.org/1999/xlink" width="400" height="280.1041666666667" viewBox="0, 0, 400,280.1041666666667"><g id="svgg"><path id="path0" d="M160.000 140.014 L 160.000 199.862 160.708 199.463 C 161.098 199.243,162.692 198.326,164.250 197.425 C 165.808 196.523,168.040 195.234,169.208 194.560 C 170.377 193.885,172.290 192.782,173.458 192.107 C 174.627 191.433,176.821 190.167,178.333 189.294 C 179.846 188.421,182.021 187.165,183.167 186.503 C 184.313 185.840,186.713 184.454,188.500 183.423 C 190.287 182.391,197.112 178.451,203.667 174.667 C 210.221 170.883,217.233 166.836,219.250 165.673 C 221.267 164.511,224.192 162.823,225.750 161.923 C 228.533 160.315,230.736 159.044,234.958 156.607 C 236.127 155.933,238.077 154.808,239.292 154.107 C 240.506 153.407,242.475 152.271,243.667 151.583 C 244.858 150.896,246.790 149.782,247.958 149.107 C 249.127 148.433,251.321 147.167,252.833 146.294 C 254.346 145.421,256.521 144.165,257.667 143.503 C 258.813 142.841,260.630 141.801,261.705 141.192 C 263.989 139.897,263.930 140.006,262.708 139.318 C 262.181 139.022,260.887 138.278,259.833 137.665 C 258.220 136.728,252.746 133.568,245.250 129.248 C 244.333 128.720,236.308 124.087,227.417 118.954 C 218.525 113.820,209.600 108.669,207.583 107.506 C 205.567 106.344,202.379 104.504,200.500 103.418 C 198.621 102.332,195.696 100.645,194.000 99.668 C 190.768 97.807,183.385 93.548,179.833 91.496 C 178.688 90.834,176.512 89.579,175.000 88.706 C 173.487 87.833,171.313 86.578,170.167 85.916 C 163.706 82.183,160.172 80.167,160.091 80.167 C 160.041 80.167,160.000 107.098,160.000 140.014 " stroke="none" fill="#fcfbfb" fill-rule="evenodd"></path><path id="path1" d="M168.083 0.179 C 164.783 0.254,157.621 0.401,152.167 0.504 C 139.313 0.749,122.372 1.254,113.250 1.666 C 99.320 2.294,97.940 2.365,89.000 2.914 C 84.607 3.184,82.974 3.299,77.167 3.749 C 72.226 4.132,66.610 4.649,63.667 4.993 C 62.887 5.084,61.275 5.272,60.083 5.410 C 58.892 5.549,57.429 5.736,56.833 5.826 C 56.237 5.916,55.150 6.066,54.417 6.158 C 53.683 6.251,52.708 6.402,52.250 6.493 C 51.792 6.585,50.704 6.779,49.833 6.925 C 48.962 7.071,47.950 7.257,47.583 7.339 C 47.217 7.421,46.354 7.611,45.667 7.760 C 44.979 7.909,44.229 8.092,44.000 8.165 C 43.771 8.239,43.133 8.427,42.583 8.583 C 41.090 9.006,39.174 9.659,38.377 10.017 C 37.988 10.191,37.631 10.333,37.582 10.333 C 36.813 10.333,28.679 14.818,27.695 15.785 C 27.574 15.904,27.324 16.083,27.140 16.181 C 26.957 16.279,26.682 16.462,26.528 16.588 C 26.375 16.713,25.800 17.176,25.251 17.616 C 22.624 19.720,19.720 22.624,17.616 25.251 C 17.176 25.800,16.713 26.375,16.588 26.528 C 16.462 26.682,16.279 26.957,16.181 27.140 C 16.083 27.324,15.908 27.574,15.793 27.695 C 14.628 28.926,11.564 34.506,10.180 37.917 C 10.105 38.100,9.966 38.438,9.869 38.667 C 9.377 39.837,8.455 42.837,7.897 45.083 C 7.435 46.942,7.364 47.247,7.081 48.583 C 6.925 49.317,6.730 50.217,6.647 50.583 C 6.563 50.950,6.377 51.887,6.232 52.667 C 6.087 53.446,5.903 54.421,5.823 54.833 C 5.742 55.246,5.564 56.296,5.427 57.167 C 5.290 58.038,5.099 59.237,5.002 59.833 C 4.906 60.429,4.711 61.779,4.569 62.833 C 4.427 63.887,4.240 65.237,4.153 65.833 C 4.067 66.429,3.880 67.929,3.739 69.167 C 3.597 70.404,3.412 72.017,3.328 72.750 C 3.243 73.483,3.060 75.283,2.920 76.750 C 2.780 78.217,2.591 80.167,2.499 81.083 C 2.408 82.000,2.217 84.287,2.077 86.167 C 1.936 88.046,1.747 90.521,1.658 91.667 C 1.308 96.162,0.749 106.764,0.517 113.333 C 0.015 127.490,-0.036 130.698,0.041 143.167 C 0.137 158.628,0.337 165.692,1.007 177.333 C 1.100 178.938,1.255 181.637,1.352 183.333 C 1.534 186.512,1.622 187.773,2.077 193.750 C 2.345 197.275,2.428 198.207,2.909 203.083 C 3.274 206.783,3.804 211.458,4.156 214.083 C 4.470 216.427,4.852 219.104,4.988 219.917 C 5.065 220.375,5.213 221.350,5.318 222.083 C 5.423 222.817,5.577 223.754,5.661 224.167 C 5.745 224.579,5.936 225.592,6.085 226.417 C 6.234 227.242,6.473 228.479,6.615 229.167 C 6.757 229.854,6.939 230.754,7.020 231.167 C 7.635 234.301,9.653 241.216,10.156 241.917 C 10.222 242.008,10.412 242.458,10.578 242.917 C 11.184 244.587,14.603 250.882,15.149 251.333 C 15.205 251.379,15.580 251.898,15.983 252.486 C 16.387 253.073,16.812 253.673,16.928 253.819 C 18.512 255.796,19.232 256.593,21.235 258.589 C 23.418 260.763,24.252 261.526,25.447 262.444 C 25.705 262.642,26.190 263.017,26.525 263.277 C 27.685 264.179,30.370 265.998,31.083 266.365 C 31.358 266.507,31.996 266.858,32.500 267.146 C 33.004 267.433,33.904 267.899,34.500 268.180 C 35.096 268.462,35.958 268.870,36.417 269.088 C 37.902 269.795,40.869 270.853,43.167 271.496 C 43.579 271.611,44.104 271.768,44.333 271.845 C 44.563 271.923,45.200 272.071,45.750 272.176 C 46.300 272.280,47.050 272.433,47.417 272.516 C 48.830 272.836,52.215 273.419,54.667 273.766 C 57.855 274.216,58.731 274.332,60.917 274.589 C 64.543 275.017,65.800 275.150,68.750 275.421 C 70.308 275.564,72.333 275.752,73.250 275.838 C 74.745 275.980,77.737 276.212,84.000 276.673 C 85.146 276.757,88.071 276.943,90.500 277.086 C 92.929 277.228,96.117 277.416,97.583 277.502 C 99.050 277.589,102.875 277.777,106.083 277.920 C 118.475 278.475,118.311 278.469,135.167 278.991 C 148.328 279.400,153.368 279.513,167.083 279.709 C 185.623 279.974,214.533 279.975,233.083 279.709 C 246.746 279.514,251.315 279.411,264.833 278.991 C 279.203 278.544,281.312 278.474,284.667 278.331 C 292.077 278.014,299.840 277.653,302.417 277.504 C 310.482 277.038,314.139 276.816,316.083 276.672 C 323.659 276.112,325.264 275.988,326.833 275.840 C 327.796 275.749,329.821 275.563,331.333 275.425 C 332.846 275.287,334.721 275.100,335.500 275.008 C 336.279 274.916,337.892 274.731,339.083 274.596 C 341.231 274.352,342.196 274.224,345.417 273.757 C 347.964 273.387,351.238 272.820,352.583 272.516 C 352.950 272.433,353.700 272.280,354.250 272.176 C 354.800 272.071,355.438 271.923,355.667 271.845 C 355.896 271.768,356.421 271.611,356.833 271.496 C 358.996 270.891,362.125 269.787,363.417 269.173 C 366.615 267.654,366.625 267.648,368.667 266.493 C 369.639 265.943,370.756 265.253,370.833 265.155 C 370.879 265.097,371.248 264.842,371.654 264.588 C 372.059 264.334,372.471 264.060,372.570 263.978 C 372.669 263.897,373.162 263.513,373.667 263.126 C 374.171 262.738,374.671 262.345,374.777 262.252 C 374.884 262.159,375.221 261.898,375.527 261.671 C 376.392 261.029,381.015 256.375,381.988 255.167 C 382.467 254.571,382.955 253.964,383.072 253.819 C 383.188 253.673,383.613 253.073,384.017 252.486 C 384.420 251.898,384.795 251.379,384.851 251.333 C 385.397 250.882,388.816 244.587,389.422 242.917 C 389.588 242.458,389.778 242.008,389.844 241.917 C 390.347 241.216,392.365 234.301,392.980 231.167 C 393.061 230.754,393.243 229.854,393.385 229.167 C 393.527 228.479,393.766 227.242,393.915 226.417 C 394.064 225.592,394.255 224.579,394.339 224.167 C 394.423 223.754,394.577 222.817,394.682 222.083 C 394.787 221.350,394.935 220.375,395.012 219.917 C 395.148 219.104,395.530 216.427,395.844 214.083 C 396.199 211.435,396.712 206.896,397.088 203.083 C 397.506 198.837,397.635 197.402,397.820 194.917 C 397.916 193.633,398.070 191.646,398.162 190.500 C 398.624 184.738,398.688 183.692,399.168 174.167 C 399.324 171.066,399.532 165.465,399.847 155.833 C 399.969 152.111,400.011 145.094,399.959 136.917 C 399.862 121.528,399.662 114.452,398.993 102.833 C 398.900 101.229,398.748 98.567,398.654 96.917 C 398.416 92.759,397.838 84.899,397.501 81.250 C 397.240 78.417,396.826 74.249,396.674 72.917 C 396.172 68.529,395.987 66.958,395.846 65.917 C 395.426 62.818,395.165 60.989,395.001 60.000 C 394.903 59.404,394.717 58.242,394.588 57.417 C 394.459 56.592,394.271 55.467,394.170 54.917 C 394.070 54.367,393.879 53.317,393.746 52.583 C 393.613 51.850,393.437 50.950,393.353 50.583 C 393.270 50.217,393.075 49.317,392.919 48.583 C 392.636 47.247,392.565 46.942,392.103 45.083 C 391.864 44.119,391.746 43.685,391.334 42.250 C 391.078 41.356,390.348 39.185,390.131 38.667 C 390.034 38.438,389.895 38.100,389.820 37.917 C 388.436 34.506,385.372 28.926,384.207 27.695 C 384.092 27.574,383.917 27.324,383.819 27.140 C 383.721 26.957,383.538 26.682,383.412 26.528 C 383.287 26.375,382.824 25.800,382.384 25.251 C 380.280 22.624,377.376 19.720,374.749 17.616 C 374.200 17.176,373.625 16.713,373.472 16.588 C 373.318 16.462,373.043 16.279,372.860 16.181 C 372.676 16.083,372.426 15.904,372.305 15.785 C 371.321 14.818,363.187 10.333,362.418 10.333 C 362.369 10.333,362.012 10.191,361.623 10.017 C 360.826 9.659,358.910 9.006,357.417 8.583 C 356.867 8.427,356.229 8.239,356.000 8.165 C 355.771 8.092,355.021 7.909,354.333 7.760 C 353.646 7.611,352.783 7.416,352.417 7.328 C 352.050 7.240,351.300 7.095,350.750 7.007 C 350.200 6.919,349.300 6.764,348.750 6.662 C 348.200 6.560,347.000 6.372,346.083 6.244 C 345.167 6.115,343.892 5.932,343.250 5.836 C 342.608 5.740,341.108 5.549,339.917 5.410 C 338.725 5.271,337.150 5.085,336.417 4.997 C 335.683 4.909,333.846 4.719,332.333 4.576 C 330.821 4.434,328.833 4.246,327.917 4.159 C 327.000 4.073,324.712 3.886,322.833 3.744 C 320.954 3.602,318.517 3.418,317.417 3.335 C 316.317 3.252,314.104 3.107,312.500 3.012 C 310.896 2.918,308.421 2.765,307.000 2.673 C 302.241 2.364,298.447 2.157,294.333 1.984 C 292.087 1.889,288.712 1.745,286.833 1.664 C 284.954 1.584,281.092 1.442,278.250 1.349 C 275.408 1.256,270.796 1.103,268.000 1.007 C 258.652 0.689,250.664 0.485,240.500 0.303 C 228.056 0.080,176.270 -0.008,168.083 0.179 M162.750 81.539 C 167.575 84.335,169.036 85.179,173.500 87.748 C 176.021 89.199,178.946 90.886,180.000 91.497 C 181.054 92.109,183.004 93.235,184.333 94.000 C 185.662 94.765,187.612 95.890,188.667 96.500 C 189.721 97.110,191.671 98.235,193.000 99.000 C 194.329 99.765,196.279 100.890,197.333 101.500 C 198.387 102.110,200.338 103.235,201.667 104.000 C 202.996 104.765,204.946 105.890,206.000 106.500 C 207.054 107.110,209.004 108.235,210.333 109.000 C 211.662 109.765,213.612 110.890,214.667 111.500 C 215.721 112.110,217.671 113.235,219.000 114.000 C 220.329 114.765,222.279 115.890,223.333 116.500 C 224.387 117.110,226.338 118.235,227.667 119.000 C 228.996 119.765,230.946 120.891,232.000 121.502 C 239.295 125.727,242.672 127.677,243.250 127.998 C 243.617 128.202,244.854 128.914,246.000 129.581 C 248.122 130.816,253.456 133.898,260.125 137.741 C 262.165 138.916,263.832 139.924,263.829 139.980 C 263.827 140.037,263.208 140.431,262.454 140.856 C 261.700 141.282,260.146 142.172,259.000 142.835 C 254.844 145.240,251.362 147.249,248.750 148.751 C 247.283 149.594,245.333 150.719,244.417 151.251 C 243.500 151.782,241.550 152.907,240.083 153.751 C 238.617 154.594,236.667 155.718,235.750 156.249 C 231.459 158.732,229.717 159.738,227.167 161.204 C 225.654 162.073,223.667 163.219,222.750 163.751 C 221.833 164.282,219.883 165.407,218.417 166.251 C 216.950 167.094,215.000 168.218,214.083 168.749 C 213.167 169.279,211.442 170.276,210.250 170.964 C 209.058 171.653,206.696 173.017,205.000 173.997 C 196.418 178.956,195.206 179.655,194.667 179.961 C 194.346 180.143,192.171 181.397,189.833 182.747 C 187.496 184.097,184.383 185.895,182.917 186.741 C 181.450 187.587,177.475 189.880,174.083 191.837 C 170.692 193.794,166.154 196.419,164.000 197.671 C 161.846 198.923,160.027 199.917,159.958 199.880 C 159.649 199.715,159.816 79.958,160.125 80.075 C 160.285 80.137,161.467 80.795,162.750 81.539 " stroke="none" fill="#fc0404" fill-rule="evenodd"></path><path id="path2" d="M159.874 139.865 C 159.852 172.837,159.890 199.848,159.958 199.891 C 160.071 199.961,160.071 159.666,159.958 101.583 C 159.934 89.667,159.897 106.893,159.874 139.865 " stroke="none" fill="#fc5b5b" fill-rule="evenodd"></path><path id="path3" d="" stroke="none" fill="#fc8484" fill-rule="evenodd"></path><path id="path4" d="" stroke="none" fill="#fc7c7c" fill-rule="evenodd"></path></g></svg>