<svg
  xmlns="http://www.w3.org/2000/svg"
  width="15"
  height="22"
  viewBox="4.5 1 15 22"
  fill="none"
  stroke="currentColor"
  stroke-width="2"
  stroke-linecap="round"
  stroke-linejoin="round"
  style="display:block"
>
  <path d="M5.5 22h13"/>
  <path d="M5.5 2h13"/>
  <path d="M17 22v-4.172a2 2 0 0 0-.586-1.414L12 12l-4.414 4.414A2 2 0 0 0 7 17.828V22"/>
  <path d="M7 2v4.172a2 2 0 0 0 .586 1.414L12 12l4.414-4.414A2 2 0 0 0 17 6.172V2"/>
  <path d="M10.43 5.3h3.14"/>
  <path d="M10.43 5.6h3.14"/>
  <path d="M10.57 5.8h2.86"/>
  <path d="M10.75 6.0h2.5"/>
  <path d="M10.92 6.2h2.16"/>
  <path d="M11.1 6.4h1.8"/>
  <path d="M11.28 6.6h1.44"/>

  <circle cx="12" cy="19.2" r="0.8" fill="currentColor" stroke="none"/>
</svg>