<svg
  xmlns="http://www.w3.org/2000/svg"
  viewBox="0 0 256 256"
  fill="none"
  color="#a66ae3"
  role="img"
  aria-label="SOON with arrow underneath"
>
  <title>SOON with arrow underneath</title>

  <g
    stroke="currentColor"
    stroke-width="18"
    stroke-linecap="round"
    stroke-linejoin="round"
  >
    <path d="M58 28H42Q28 28 25 42V69Q28 83 42 83H44Q58 83 58 97V124Q58 138 38 138H25" />
    <path d="M76 42Q76 28 90 28H102Q116 28 116 42V124Q116 138 102 138H90Q76 138 76 124V42Z" />
    <path d="M134 42Q134 28 148 28H160Q174 28 174 42V124Q174 138 160 138H148Q134 138 134 124V42Z" />
    <path d="M192 138V28L228 138V28" />

    <path d="M25 200H228" />
    <path d="M172 172L228 200L172 228" />
  </g>
</svg>
