<?xml version="1.0" encoding="utf-8"?>
<!-- Generator: Adobe Illustrator 28.1.0, SVG Export Plug-In . SVG Version: 6.00 Build 0)  -->
<svg version="1.1" id="Layer_1" xmlns="http://www.w3.org/2000/svg" xmlns:xlink="http://www.w3.org/1999/xlink" x="0px" y="0px"
	 viewBox="0 0 783 226.5" style="enable-background:new 0 0 783 226.5;" xml:space="preserve">
<style type="text/css">
	.st0{fill:#F61C01;}
	.st1{fill:#001C01;}
	.st2{clip-path:url(#SVGID_00000132798368826536987380000009520405519915874977_);fill:#EE2624;}
	.st3{clip-path:url(#SVGID_00000132798368826536987380000009520405519915874977_);fill:none;stroke:#EE2624;stroke-miterlimit:10;}
	.st4{fill:none;stroke:#000000;stroke-width:3;}
	.st5{fill:#F51C00;}
	.st6{fill:none;stroke:#EE2624;stroke-width:12;stroke-miterlimit:10;}
	.st7{fill:#F6FFFF;}
	.st8{fill:none;stroke:#EE2624;stroke-width:5;stroke-linecap:round;stroke-linejoin:round;stroke-miterlimit:10;}
	.st9{fill:#EE2624;}
	.st10{fill:none;stroke:#F61C01;stroke-width:2;}
	.st11{fill:none;stroke:#EE2624;stroke-width:3;stroke-miterlimit:10;}
	.st12{clip-path:url(#SVGID_00000171683296949952688810000016016433682953008268_);fill:#EE2624;}
	.st13{clip-path:url(#SVGID_00000171683296949952688810000016016433682953008268_);fill:none;stroke:#EE2624;stroke-miterlimit:10;}
	.st14{clip-path:url(#SVGID_00000147212827808427692300000007305118225966914991_);fill:#F51C00;}
	
		.st15{clip-path:url(#SVGID_00000147212827808427692300000007305118225966914991_);fill:none;stroke:#EE2624;stroke-width:12;stroke-miterlimit:10;}
	.st16{clip-path:url(#SVGID_00000147212827808427692300000007305118225966914991_);fill:#F61C01;}
	.st17{clip-path:url(#SVGID_00000147212827808427692300000007305118225966914991_);fill:#F6FFFF;}
	
		.st18{clip-path:url(#SVGID_00000147212827808427692300000007305118225966914991_);fill:none;stroke:#EE2624;stroke-width:5;stroke-linecap:round;stroke-linejoin:round;stroke-miterlimit:10;}
	.st19{clip-path:url(#SVGID_00000147212827808427692300000007305118225966914991_);fill:#EE2624;}
	.st20{clip-path:url(#SVGID_00000147212827808427692300000007305118225966914991_);fill:none;stroke:#F61C01;stroke-width:2;}
	
		.st21{clip-path:url(#SVGID_00000147212827808427692300000007305118225966914991_);fill:none;stroke:#EE2624;stroke-width:3;stroke-miterlimit:10;}
	.st22{fill:none;stroke:#EE2624;stroke-miterlimit:10;}
</style>
<path class="st0" d="M574,90c0,38.13-32.95,69.5-73,69.5c0-13.63,0-27.25,0-40.88c17.85,0.37,32.6-12.81,33.54-28.62
	c1.02-17.03-14.25-32.48-33.54-32.15c0-12.45,0-24.9,0-37.35C541.05,20.5,574,51.87,574,90z"/>
<path class="st0" d="M231,87c0,38.68-34.31,70.5-76,70.5c0-13.82,0-27.65,0-41.47c18.59,0.37,33.94-12.99,34.92-29.03
	c1.06-17.28-14.84-32.95-34.92-32.62c0-12.63,0-25.26,0-37.88C196.69,16.5,231,48.32,231,87z"/>
<path class="st0" d="M501,87c0,38.68-32.95,70.5-73,70.5c0-13.82,0-27.65,0-41.47c17.85,0.37,32.6-12.99,33.54-29.03
	c1.02-17.28-14.25-32.95-33.54-32.62c0-12.63,0-25.26,0-37.88C468.05,16.5,501,48.32,501,87z"/>
<path class="st0" d="M364,86c0,38.68-32.85,70.5-72.77,70.5c-5.74,0-11.49,0-17.23,0c0-13.97,0-27.95,0-41.92
	c8.8-0.02,17.6-0.04,26.4-0.06c3.1-0.9,8.67-2.98,13.87-7.85c5.8-5.43,9.97-13.4,10.4-20.67c1.01-17.28-14.21-32.95-33.43-32.62
	c0-12.63,0-25.26,0-37.88C331.15,15.5,364,47.32,364,86z"/>
<rect x="576" y="16.5" class="st0" width="40" height="68"/>
<rect x="370" y="16.5" class="st0" width="38" height="140"/>
<rect x="235" y="16.5" class="st0" width="40" height="140"/>
<rect x="98" y="16.5" class="st0" width="42" height="180"/>
<rect x="407" y="16.5" class="st0" width="22" height="38"/>
<polygon class="st0" points="162,54.5 134,54.5 134,16.5 155,16.5 "/>
<path class="st0" d="M688,17.5c-38.66,0-70,31.34-70,70s31.34,70,70,70s70-31.34,70-70S726.66,17.5,688,17.5z M688,118.72
	c-17.24,0-31.22-13.98-31.22-31.22S670.76,56.28,688,56.28s31.22,13.98,31.22,31.22S705.24,118.72,688,118.72z"/>
<g>
	<path class="st0" d="M449.82,177.81v22.98h-3.15v-10.67h-11.72v10.67h-3.15v-22.98h3.15v9.78h11.72v-9.78H449.82z"/>
	<path class="st0" d="M467.7,189.07v11.72h-2.89v-2.66c-1.21,1.9-3.35,2.79-6.01,2.79c-3.31,0-5.02-1.77-5.02-4.86
		c0-3.58,2.79-6.47,11.03-7.35c-0.1-2.99-0.95-3.97-3.28-3.94c-2.07,0-4.46,0.46-6.56,1.02l-0.46-2.1c2.33-0.59,5.05-1.08,7.48-1.08
		C466.29,182.61,467.7,184.38,467.7,189.07z M464.81,193.63v-2.95c-6.33,0.59-8.21,2.72-8.21,4.89c0,1.94,1.02,3.05,3.35,3.05
		C462.51,198.62,464.81,197.24,464.81,193.63z"/>
	<path class="st0" d="M472.55,176.17h2.99v3.15h-2.99V176.17z M472.55,182.74h2.99v18.05h-2.99V182.74z"/>
	<path class="st0" d="M484.53,181.19v1.54h3.97v2.1h-3.97v15.95h-3.02v-15.95h-2.23v-2.1h2.23v-1.58c0-3.54,1.12-5.19,4.37-5.19
		c1.28,0,2.59,0.2,3.58,0.39l-0.26,1.94c-0.62-0.1-1.48-0.23-2.36-0.23C485.03,178.08,484.53,178.9,484.53,181.19z"/>
	<path class="st0" d="M503.99,189.07v11.72h-2.89v-2.66c-1.21,1.9-3.35,2.79-6.01,2.79c-3.31,0-5.02-1.77-5.02-4.86
		c0-3.58,2.79-6.47,11.03-7.35c-0.1-2.99-0.95-3.97-3.28-3.94c-2.07,0-4.46,0.46-6.56,1.02l-0.46-2.1c2.33-0.59,5.05-1.08,7.48-1.08
		C502.58,182.61,503.99,184.38,503.99,189.07z M501.11,193.63v-2.95c-6.33,0.59-8.21,2.72-8.21,4.89c0,1.94,1.02,3.05,3.35,3.05
		C498.81,198.62,501.11,197.24,501.11,193.63z"/>
	<path class="st0" d="M515.36,191.5v-4.46c0-6.6,2.95-9.42,9.09-9.42s9.06,2.82,9.06,8.4h-3.15c0-4-1.94-6.01-5.91-6.01
		c-3.94,0-5.94,2-5.94,6.73v5.05c0,4.79,2,6.79,5.94,6.79c3.97,0,5.91-2,5.91-6.07h3.15c0,5.61-2.92,8.44-9.06,8.44
		S515.36,198.13,515.36,191.5z"/>
	<path class="st0" d="M538,176.17h2.99v3.15H538V176.17z M538,182.74h2.99v18.05H538V182.74z"/>
	<path class="st0" d="M561.34,189.96v10.83h-2.99v-10.83c0-3.25-1.51-5.15-4.4-5.15c-3.15,0-4.63,2-4.63,5.42l-0.03-0.03l0.03,10.6
		h-3.02v-18.05h2.99v2.3c1.08-1.58,2.89-2.46,5.42-2.46C559.21,182.57,561.34,185.26,561.34,189.96z"/>
	<path class="st0" d="M580.41,192.62h-12.44c0.16,4.23,1.71,6.17,4.69,6.17c2.72,0,4.07-1.64,4.5-3.64h2.99
		c-0.56,3.41-2.89,5.88-7.48,5.88c-5.09,0-7.68-3.12-7.68-9.26c0-6.1,2.59-9.22,7.68-9.22C577.81,182.54,580.6,185.72,580.41,192.62
		z M567.97,190.84h9.49c-0.16-4.46-2-6.1-4.79-6.1C569.67,184.74,568.13,186.64,567.97,190.84z"/>
	<path class="st0" d="M608.76,189.24v11.55h-3.02v-11.55c0-2.72-1.15-4.43-3.87-4.43c-2.63,0-3.77,1.71-3.77,4.43v11.55h-2.99
		v-11.55c0-2.72-1.15-4.43-3.84-4.43c-2.59,0-3.77,1.74-3.77,4.6v11.39h-2.99v-18.05h2.99v1.94c0.95-1.38,2.49-2.1,4.63-2.1
		c2.56,0,4.27,0.92,5.15,2.66c0.89-1.67,2.59-2.66,5.25-2.66C606.86,182.57,608.76,184.94,608.76,189.24z"/>
	<path class="st0" d="M626.15,189.07v11.72h-2.89v-2.66c-1.21,1.9-3.35,2.79-6.01,2.79c-3.31,0-5.02-1.77-5.02-4.86
		c0-3.58,2.79-6.47,11.03-7.35c-0.1-2.99-0.95-3.97-3.28-3.94c-2.07,0-4.46,0.46-6.56,1.02l-0.46-2.1c2.33-0.59,5.05-1.08,7.48-1.08
		C624.74,182.61,626.15,184.38,626.15,189.07z M623.26,193.63v-2.95c-6.33,0.59-8.21,2.72-8.21,4.89c0,1.94,1.02,3.05,3.35,3.05
		C620.96,198.62,623.26,197.24,623.26,193.63z"/>
	<path class="st0" d="M639.6,198.56v2.23h-2.66c-3.91,0-5.42-1.38-5.42-5.15v-10.8h-2.4v-2.1h2.4v-4.92h3.02v4.92h4.83v2.1h-4.83
		v10.67c0,2.23,0.79,3.05,2.92,3.05H639.6z"/>
	<path class="st0" d="M658.01,190.02v10.77h-3.02v-10.77c0-3.28-1.51-5.19-4.37-5.19c-3.18,0-4.66,2-4.66,5.45v10.5h-2.99v-24.62
		h2.99v8.67c1.08-1.44,2.82-2.23,5.25-2.23C655.72,182.61,658.01,185.33,658.01,190.02z"/>
	<path class="st0" d="M677.05,192.62h-12.44c0.16,4.23,1.71,6.17,4.69,6.17c2.72,0,4.07-1.64,4.5-3.64h2.99
		c-0.56,3.41-2.89,5.88-7.48,5.88c-5.09,0-7.68-3.12-7.68-9.26c0-6.1,2.59-9.22,7.68-9.22
		C674.45,182.54,677.24,185.72,677.05,192.62z M664.61,190.84h9.49c-0.16-4.46-2-6.1-4.79-6.1
		C666.31,184.74,664.77,186.64,664.61,190.84z"/>
	<path class="st0" d="M695.78,182.74v24.62h-2.99v-9.55c-1.05,2-3.05,3.12-5.58,3.12c-4.82,0-7.32-3.28-7.32-9.16
		s2.5-9.16,7.32-9.16c2.56,0,4.53,1.15,5.58,3.15v-3.02H695.78z M692.9,191.76c0-4.56-1.67-7.02-4.99-7.02
		c-3.32,0-5.02,2.46-5.02,7.02c0,4.56,1.71,7.02,5.02,7.02C691.22,198.79,692.9,196.33,692.9,191.76z"/>
	<path class="st0" d="M715.54,182.74v18.05h-3.02v-2.1c-1.08,1.48-2.82,2.26-5.32,2.26c-4.53,0-6.56-2.49-6.56-7.16v-11.06h3.02v11
		c0,3.25,1.41,4.99,4.3,4.99c3.18,0,4.56-1.84,4.56-5.25v-10.73H715.54z"/>
	<path class="st0" d="M735.03,192.62h-12.44c0.16,4.23,1.71,6.17,4.69,6.17c2.72,0,4.07-1.64,4.5-3.64h2.99
		c-0.56,3.41-2.89,5.88-7.48,5.88c-5.09,0-7.68-3.12-7.68-9.26c0-6.1,2.59-9.22,7.68-9.22
		C732.44,182.54,735.23,185.72,735.03,192.62z M722.59,190.84h9.49c-0.16-4.46-2-6.1-4.79-6.1
		C724.3,184.74,722.75,186.64,722.59,190.84z"/>
</g>
<g>
	<path class="st0" d="M158.71,199.08c-1.43-1.21-2.14-3-2.14-5.38v-26.72l2.2-0.56l0.3,0.15l-0.05,26.47c0,1.33,0.21,2.37,0.64,3.14
		c0.43,0.76,1.13,1.33,2.1,1.68c0.97,0.36,2.3,0.54,3.98,0.54c0.92,0,1.39,0.31,1.39,0.92c0,0.44-0.21,0.82-0.64,1.12
		s-1.01,0.46-1.76,0.46C162.14,200.89,160.13,200.29,158.71,199.08z"/>
	<path class="st0" d="M191.5,198.62c0.2,0.15,0.31,0.38,0.31,0.69c0,0.44-0.21,0.82-0.64,1.12c-0.43,0.31-1.01,0.46-1.76,0.46h-1.63
		c-1.77,0-3.49-0.15-5.15-0.46c-1.67-0.31-3.2-0.75-4.59-1.33c-3.03,1.19-6.61,1.79-10.76,1.79h-2.55l1.04-2.5h3.02
		c2.18,0,4.38-0.27,6.6-0.82c-1.29-0.88-2.29-1.87-3.01-2.96c-0.72-1.09-1.07-2.26-1.07-3.52c0-1.43,0.38-2.82,1.13-4.18
		c0.76-1.36,1.73-2.46,2.91-3.29c1.19-0.83,2.38-1.25,3.58-1.25c1.1,0,2.16,0.37,3.17,1.1c1.01,0.73,1.83,1.68,2.45,2.86
		c0.62,1.17,0.93,2.35,0.93,3.54c0,3.16-1.46,5.71-4.39,7.65c2.11,0.58,4.54,0.87,7.29,0.87h2.04
		C190.94,198.39,191.3,198.47,191.5,198.62z M174.92,193.96c0.78,0.99,1.89,1.82,3.32,2.5c1.5-0.68,2.67-1.55,3.52-2.6
		c0.85-1.05,1.27-2.23,1.27-3.52c0-0.85-0.22-1.69-0.67-2.52c-0.45-0.83-1.01-1.51-1.7-2.04c-0.68-0.53-1.37-0.79-2.07-0.79
		c-0.73,0-1.47,0.29-2.22,0.87c-0.75,0.58-1.37,1.32-1.87,2.22c-0.5,0.9-0.75,1.79-0.75,2.68
		C173.75,191.9,174.14,192.97,174.92,193.96z M179.16,175.55l-2.91-2.04l1.78-2.7l2.96,1.99L179.16,175.55z"/>
	<path class="st0" d="M208.58,198.62c0.2,0.15,0.31,0.38,0.31,0.69c0,0.44-0.21,0.82-0.64,1.12c-0.43,0.31-1,0.46-1.71,0.46
		c-3.91,0-6.83-0.9-8.77-2.7c-0.78,0.95-1.72,1.64-2.81,2.07c-1.09,0.43-2.46,0.64-4.13,0.64h-1.43l1.02-2.5h0.92
		c0.99,0,1.89-0.12,2.7-0.36c0.82-0.24,1.46-0.63,1.94-1.17c0.34-0.54,0.77-1.58,1.3-3.11c0.53-1.53,1.08-3.4,1.66-5.61l2.45-0.61
		l0.41,0.2c-0.58,2.18-1.06,3.89-1.45,5.15c-0.39,1.26-0.83,2.35-1.3,3.26c1.77,1.5,4.61,2.24,8.52,2.24
		C208.04,198.39,208.38,198.47,208.58,198.62z M195.83,210.53l-2.91-2.04l1.79-2.7l2.96,1.94L195.83,210.53z M201.96,210.53
		l-2.96-2.04l1.84-2.7l2.91,1.94L201.96,210.53z"/>
	<path class="st0" d="M230.34,190.69c1.65,0.65,3.15,1,4.51,1.07l-0.66,2.45c-2.01,0.27-4.12,0.69-6.35,1.25
		c-2.23,0.56-4.82,1.35-7.78,2.37c-3.4,1.19-6.04,2-7.93,2.42c-1.89,0.43-3.75,0.64-5.58,0.64l0.97-2.5c1.43,0,2.97-0.2,4.64-0.61
		c1.67-0.41,4.06-1.14,7.19-2.19c2.41-0.78,4.36-1.39,5.84-1.84c1.48-0.44,2.8-0.76,3.95-0.97c-1.46-0.54-3.38-1.51-5.76-2.91
		c-2.14-1.22-3.83-2.08-5.07-2.58c-1.24-0.49-2.37-0.74-3.39-0.74c-1.33,0-2.77,0.27-4.33,0.82l-0.2-0.2l0.92-2.24
		c1.33-0.58,2.69-0.87,4.08-0.87c0.99,0,2.12,0.25,3.39,0.77c1.27,0.51,3.05,1.41,5.33,2.7
		C226.6,188.99,228.69,190.05,230.34,190.69z"/>
	<path class="st0" d="M296.97,199.31c0,0.44-0.21,0.82-0.64,1.12c-0.43,0.31-1.01,0.46-1.76,0.46c-1.6,0-2.96-0.25-4.08-0.74
		c-1.12-0.49-1.97-1.22-2.55-2.17c-0.99,1.19-2.56,2.06-4.72,2.6c-2.16,0.54-5.26,0.82-9.31,0.82h-1.68c-4.15,0-7.51-0.3-10.07-0.89
		c-2.57-0.59-4.5-1.61-5.79-3.03c-1.29-1.43-1.94-3.38-1.94-5.87c0-1.43,0.2-2.99,0.61-4.69l1.99-0.76l0.36,0.2
		c-0.34,1.6-0.51,3.08-0.51,4.44c0,2.07,0.52,3.7,1.56,4.87c1.04,1.17,2.71,2.01,5.02,2.5c2.31,0.49,5.46,0.74,9.43,0.74h1.73
		c3.16,0,5.66-0.16,7.5-0.48c1.84-0.32,3.16-0.81,3.98-1.45c0.24-1.09,0.36-2.4,0.36-3.93v-26.06l2.15-0.56l0.29,0.15v26.27
		c0,1.33,0.21,2.39,0.62,3.19c0.41,0.8,1.1,1.39,2.07,1.79c0.96,0.39,2.29,0.59,3.98,0.59C296.5,198.39,296.97,198.7,296.97,199.31z
		 M267.69,185.64c1.26,0,2.23-0.02,2.91-0.05c-0.51-0.48-0.88-1.01-1.12-1.61c-0.24-0.59-0.36-1.21-0.36-1.86
		c0-1.16,0.37-2.09,1.12-2.81c0.75-0.71,1.72-1.07,2.91-1.07c0.95,0,2.09,0.24,3.42,0.71l-0.61,1.84c-1.02-0.37-1.91-0.56-2.65-0.56
		c-0.65,0-1.18,0.2-1.61,0.59c-0.43,0.39-0.64,0.93-0.64,1.61c0,0.61,0.19,1.18,0.56,1.71c0.37,0.53,0.9,0.96,1.58,1.3
		c1.9-0.14,3.28-0.25,4.13-0.36l0.2,1.79c-2.72,0.34-5.93,0.58-9.64,0.71L267.69,185.64z"/>
	<path class="st0" d="M295.58,198.39h0.96c1.41,0,2.69-0.13,3.83-0.38c1.14-0.26,2-0.62,2.57-1.1c0.3-0.92,0.45-1.89,0.45-2.91
		c0-2.28-0.73-5-2.19-8.16l1.93-1.53h0.31c0.76,1.73,1.36,3.34,1.77,4.82c0.42,1.48,0.63,2.73,0.63,3.75c0,1.19-0.17,2.35-0.51,3.49
		c-0.34,1.14-0.8,2-1.38,2.58c-1.29,1.29-3.96,1.94-8.01,1.94h-1.38L295.58,198.39z M299.93,177.54l-2.91-2.04l1.79-2.7l2.91,1.99
		L299.93,177.54z M305.94,177.54l-2.96-2.04l1.84-2.7l2.91,1.99L305.94,177.54z"/>
	<path class="st0" d="M315.12,199.08c-1.43-1.21-2.14-3-2.14-5.38v-26.72l2.2-0.56l0.3,0.15l-0.05,26.47c0,1.33,0.21,2.37,0.64,3.14
		c0.43,0.76,1.13,1.33,2.1,1.68c0.97,0.36,2.3,0.54,3.98,0.54c0.92,0,1.39,0.31,1.39,0.92c0,0.44-0.21,0.82-0.64,1.12
		s-1.01,0.46-1.76,0.46C318.56,200.89,316.55,200.29,315.12,199.08z"/>
	<path class="st0" d="M350.98,199.31c0,0.48-0.24,0.86-0.71,1.15c-0.48,0.29-1.05,0.43-1.73,0.43c-0.92,0-1.83-0.19-2.73-0.56
		c-0.9-0.37-1.73-0.93-2.47-1.68c-0.68,1.87-2.02,2.81-4.03,2.81c-1.63,0-3.44-0.41-5.43-1.22s-3.83-1.84-5.53-3.06
		c-0.65,1.02-1.28,1.79-1.89,2.32c-0.61,0.53-1.33,0.89-2.14,1.1c-0.82,0.2-1.87,0.31-3.16,0.31l1.02-2.5
		c0.78,0,1.44-0.14,1.96-0.41c0.53-0.27,1.01-0.69,1.45-1.25c0.44-0.56,0.97-1.38,1.58-2.47l0.61-1.12c1.02-1.9,1.88-3.42,2.58-4.54
		s1.5-2.07,2.4-2.83c0.9-0.77,1.86-1.15,2.88-1.15c0.95,0,1.84,0.34,2.65,1.02c0.82,0.68,1.59,1.64,2.32,2.88
		c0.73,1.24,1.56,2.9,2.47,4.97c0.51,1.19,1.04,2.13,1.58,2.83c0.54,0.7,1.21,1.22,1.99,1.56c0.78,0.34,1.75,0.51,2.91,0.51
		C350.5,198.39,350.98,198.7,350.98,199.31z M340.78,198.39c0.51-0.37,0.85-0.99,1.02-1.84c-0.27-0.48-0.46-0.85-0.56-1.12
		c-1.19-2.75-2.24-4.82-3.16-6.2s-1.75-2.07-2.5-2.07c-0.61,0-1.22,0.32-1.84,0.97c-0.61,0.65-1.22,1.5-1.84,2.55
		c-0.61,1.05-1.41,2.53-2.4,4.44c1.67,1.19,3.32,2.13,4.97,2.81c1.65,0.68,3.07,1.02,4.26,1.02
		C339.59,198.96,340.27,198.77,340.78,198.39z"/>
	<path class="st0" d="M366.69,198.62c0.2,0.15,0.31,0.38,0.31,0.69c0,0.44-0.21,0.82-0.64,1.12c-0.43,0.31-0.99,0.46-1.71,0.46
		c-1.39,0-2.76-0.22-4.11-0.66c-1.34-0.44-2.51-1.12-3.49-2.04c-0.78,0.95-1.73,1.64-2.86,2.07c-1.12,0.43-2.53,0.64-4.23,0.64
		h-1.38l1.02-2.5h1.02c1.12,0,2.06-0.13,2.8-0.38c0.75-0.26,1.39-0.64,1.94-1.15c0.34-0.54,0.77-1.59,1.3-3.14
		c0.53-1.55,1.06-3.41,1.61-5.58l2.45-0.61l0.41,0.2c-0.51,2.01-0.98,3.67-1.4,5c-0.43,1.33-0.88,2.47-1.35,3.42
		c0.82,0.68,1.84,1.22,3.09,1.63c1.24,0.41,2.64,0.61,4.21,0.61C366.14,198.39,366.48,198.47,366.69,198.62z M359.44,180.75
		l-2.91-2.04l1.79-2.7l2.96,1.99L359.44,180.75z"/>
	<path class="st0" d="M383.82,198.62c0.2,0.15,0.31,0.38,0.31,0.69c0,0.44-0.21,0.82-0.64,1.12c-0.43,0.31-1,0.46-1.71,0.46
		c-3.91,0-6.83-0.9-8.77-2.7c-0.78,0.95-1.72,1.64-2.81,2.07c-1.09,0.43-2.46,0.64-4.13,0.64h-1.43l1.02-2.5h0.92
		c0.99,0,1.89-0.12,2.7-0.36c0.82-0.24,1.46-0.63,1.94-1.17c0.34-0.54,0.77-1.58,1.3-3.11c0.53-1.53,1.08-3.4,1.66-5.61l2.45-0.61
		l0.41,0.2c-0.58,2.18-1.06,3.89-1.45,5.15c-0.39,1.26-0.83,2.35-1.3,3.26c1.77,1.5,4.61,2.24,8.52,2.24
		C383.28,198.39,383.62,198.47,383.82,198.62z M371.07,210.53l-2.91-2.04l1.79-2.7l2.96,1.94L371.07,210.53z M377.19,210.53
		l-2.96-2.04l1.84-2.7l2.91,1.94L377.19,210.53z"/>
	<path class="st0" d="M417.17,189.77c0.51,1.87,0.77,3.3,0.77,4.28c0,2.45-0.72,4.2-2.17,5.25c-1.45,1.05-3.54,1.58-6.3,1.58
		c-0.95,0-1.95-0.15-2.98-0.46c-1.04-0.31-1.93-0.7-2.68-1.17c-0.54,0.58-1.18,0.99-1.91,1.25c-0.73,0.25-1.66,0.38-2.78,0.38h-0.1
		c-1.56,0-3.07-0.21-4.51-0.64c-1.45-0.42-2.7-1.03-3.75-1.81c-0.92,0.88-2.07,1.51-3.47,1.89c-1.39,0.37-3.23,0.56-5.51,0.56
		l1.02-2.5c1.46,0,2.74-0.11,3.83-0.33c1.09-0.22,2.06-0.64,2.91-1.25c0.65-1.02,1.48-3.09,2.5-6.22l2.4-0.36l0.31,0.15
		c-0.88,2.79-1.72,4.86-2.5,6.22c0.75,0.54,1.8,0.97,3.16,1.28c1.36,0.31,2.79,0.48,4.28,0.51c1.09,0,1.95-0.22,2.6-0.66
		c0.37-0.54,0.85-1.53,1.43-2.96c0.58-1.43,1.05-2.82,1.43-4.18l2.4-0.36l0.25,0.2c-0.51,1.39-0.99,2.69-1.43,3.88
		c-0.44,1.19-0.85,2.14-1.22,2.86c0.61,0.34,1.34,0.63,2.21,0.87c0.86,0.24,1.75,0.36,2.67,0.36c2.67,0,4.43-0.59,5.28-1.79
		c0.14-0.41,0.2-0.95,0.2-1.63c0-1.26-0.25-2.72-0.75-4.39c-0.5-1.67-1.1-3.25-1.8-4.74l1.99-1.53l0.31,0.05
		C416.02,186.1,416.67,187.91,417.17,189.77z"/>
</g>
<g>
	<path class="st0" d="M30.91,153.31h53.36v12.77H40.72v31.38h-9.81V153.31z M55.51,197.06v-12.67h28.77v12.67H55.51z"/>
	<path class="st0" d="M30.91,119.75c0-14.43,6.89-21.12,21.42-21.12h10.61c14.43,0,21.32,7.19,21.32,21.12v22.23h-9.81v-20.17
		c0-7.04-2.97-10.61-13.48-10.61H53.8c-10.61,0-13.38,3.47-13.38,10.61v8.75h19.66v11.52H30.91V119.75z"/>
	<path class="st0" d="M30.91,74.58h29.97v13.18H30.91V74.58z"/>
	<path class="st0" d="M30.91,32.67c0-14.48,9.05-17.4,22.78-17.4h30.58v12.77H54.5c-7.95,0-13.78,1.26-13.78,8.75v12.07h43.55v12.67
		H30.91V32.67z"/>
</g>
</svg>
