<svg width="125" height="42" viewBox="0 0 125 42" fill="none" xmlns="http://www.w3.org/2000/svg">
<path d="M24.2562 19.2653V30.0037H22.0704V20.2837H20.9941V18.3959H23.354C23.9499 18.3959 24.2562 18.5699 24.2562 19.2653Z" fill="white"/>
<path d="M28.9846 27.1721H26.7906V20.292H25.7393V18.4043H28.9846V27.1721Z" fill="white"/>
<path d="M35.1773 20.2672H30.4746V16.4752H32.5278V18.4044H37.5701V20.1513L34.4735 27.1722H32.1636L35.1773 20.2672Z" fill="white"/>
<path d="M41.8969 27.1721H39.7029V20.292H38.6514V18.4043H41.8969V27.1721Z" fill="white"/>
<path d="M51.739 20.3062H50.9773V27.1863H48.8164V20.2731H46.1421V27.1863H43.973V20.3062H43.1865V18.4184H51.739V20.3062Z" fill="white"/>
<path d="M12.8562 3.99942V9.48045C12.8562 11.8316 12.0781 12.7673 9.47852 12.7673H8.86564V10.8878H9.60253C10.3145 10.8878 10.6788 10.5815 10.6788 9.81985V5.87886H5.30566V3.99942H12.8562ZM5.35527 7.4437H7.52451V15.599H5.35527V7.4437Z" fill="white"/>
<path d="M22.1196 8.94236C22.1196 11.7242 20.654 12.8997 18.2116 12.8997C15.8354 12.8997 14.3701 11.5918 14.3701 9.09949V3.99115H16.4979V9.09949C16.4979 10.4574 17.1684 10.9954 18.2116 10.9954C19.3212 10.9954 20.0001 10.4574 20.0001 9.09949V5.82099H17.9797V3.99115H22.1196V8.94236Z" fill="white"/>
<path d="M31.908 6.91378V12.7673H27.8593V10.8962H29.8215V6.72335C29.8215 6.20168 29.4077 5.86228 29.0102 5.86228C28.7038 5.86228 28.3231 6.00294 28.1326 6.48316L25.4832 12.7673H23.372L25.0857 8.68569L23.3223 3.99948H25.4417L25.9801 5.57248L26.1788 6.45836C26.3939 5.87876 26.6505 5.48143 26.7003 5.36558C27.3958 3.85034 28.9275 3.68488 30.3761 4.22303C31.1711 4.52099 31.908 5.49808 31.908 6.91378Z" fill="white"/>
<path d="M35.5206 3.99948C37.1102 3.99948 37.6153 4.4301 37.6153 6.11895V12.7673H33.1113V10.8879H35.4379V6.26793C35.4379 5.99478 35.3468 5.88725 35.1564 5.88725H33.7407V3.99948H35.5206Z" fill="white"/>
<path d="M42.3005 9.30652H40.1479V5.87888H38.6162V3.99943H42.3005V9.30652Z" fill="white"/>
<path d="M51.7391 9.07469C51.7391 11.6248 50.3647 12.8997 47.9387 12.8997C45.4963 12.8997 44.1304 11.6248 44.1304 9.07469V5.8706H43.3438V3.99115H51.7391V9.07469ZM49.6527 9.14077V5.81267H46.2084V9.14077C46.2084 10.5402 46.8872 11.095 47.9387 11.095C48.9902 11.095 49.6527 10.5402 49.6527 9.14077Z" fill="white"/>
<path d="M124.614 27.0042H117.338C114.624 18.0069 106.407 6.71761 93.3814 6.71761C78.9719 6.71761 72.1394 18.0069 69.4252 27.0042H62.1494C64.6985 15.1687 75.5287 0.502344 93.3779 0.500679C111.227 0.502344 122.055 15.1687 124.604 27.0042" fill="white"/>
<path d="M4.73694 35.8345V37.966C4.73694 38.3713 4.6319 38.6753 4.36558 38.9341L4.36924 38.9304C4.20045 39.1069 3.95643 39.2455 3.64499 39.3957C2.88679 39.7635 2.1176 40.1049 1.25453 40.4951L0.984375 39.8797L2.36911 39.2419C2.14773 38.2999 1.94882 37.4593 1.72743 36.5137H1.31079V35.8345H2.17769C2.3315 35.8345 2.38792 35.902 2.4292 36.0634L3.08587 38.9266C3.0897 38.9266 3.08587 38.9228 3.0897 38.9228H3.08587C3.16094 38.8817 3.23967 38.8517 3.31857 38.8066C3.77632 38.5664 3.96758 38.4875 3.96758 37.8084V36.51H3.60737V35.8345H4.73694Z" fill="white"/>
<path d="M6.86135 39.8159H6.0359V36.5136H5.5332V35.8345H6.86135V39.8159Z" fill="white"/>
<path d="M8.62494 35.8345C9.30424 35.8345 9.55942 36.052 9.55942 36.7763V39.8159H7.62305V39.1404H8.73763V36.8062C8.73763 36.5962 8.65873 36.5136 8.49361 36.5136H7.89703V35.8345H8.62494Z" fill="white"/>
<path d="M12.6556 36.51H10.3477V34.9639H11.1059V35.8345H13.5186V36.4311L12.0402 39.8159H11.2109L12.6556 36.51Z" fill="white"/>
<path d="M15.4767 39.8159H14.6513V36.5136H14.1484V35.8345H15.4767V39.8159Z" fill="white"/>
<path d="M19.9391 35.8345V38.345C19.9391 39.3956 19.5938 39.8159 18.4343 39.8159H18.1004V39.1405H18.4944C18.9109 39.1405 19.1209 38.9679 19.1209 38.5174V36.51H16.5469V35.8345H19.9391ZM16.5918 37.2455H17.4061V41.2043H16.5918V37.2455Z" fill="white"/>
<path d="M24.3563 39.1368V39.8159H20.8926V39.1368H23.0728V36.994C23.0728 36.6451 22.9566 36.5061 22.5813 36.5061H20.8926V35.8268H22.5813C23.482 35.8268 23.8721 36.1158 23.8721 37.0015V39.1368H24.3563Z" fill="white"/>
<path d="M30.1952 39.1368V39.8159H26.7314V39.1368H28.9117V36.994C28.9117 36.6451 28.7953 36.5061 28.4201 36.5061H26.7314V35.8268H28.4201C29.3208 35.8268 29.711 36.1158 29.711 37.0015V39.1368H30.1952Z" fill="white"/>
<path d="M34.1462 35.8308V39.8124H33.3281V36.5062H30.8516V35.8308H34.1462ZM30.904 37.4707H31.7106V39.8124H30.904V37.4707Z" fill="white"/>
<path d="M38.7736 37.4323C38.7736 38.0365 38.4733 38.4793 37.8466 38.4605C38.1168 38.8733 38.4996 39.4249 38.7586 39.8151H37.8766L36.5183 37.7813C36.4321 37.665 36.3382 37.6124 36.2142 37.6462C36.0042 37.6874 35.9517 37.8938 35.9517 38.0776L35.9404 39.1471H36.3081V39.8151H35.2012V38.2166C35.2012 37.6124 35.5314 37.1621 36.1242 37.2034C35.854 36.7944 35.4637 36.2201 35.2048 35.8338H36.0829L37.4338 37.8564V37.8526C37.5127 37.9689 37.6216 38.0064 37.6965 37.9952C37.9254 37.9764 38.0306 37.7702 38.0306 37.5187V36.5016H37.6852V35.8338H38.7736V37.4323Z" fill="white"/>
<path d="M43.3366 35.8345V39.8159H42.5148V36.5136H40.9763V39.3731C40.9763 39.7445 40.7699 39.8159 40.5333 39.8159H39.4639V39.1404H40.1695V36.5136H39.7154V35.8345H43.3366Z" fill="white"/>
<path d="M47.6972 35.8308V39.8124H46.879V36.5062H44.4023V35.8308H47.6972ZM44.4549 37.4707H45.2618V39.8124H44.4549V37.4707Z" fill="white"/>
<path d="M50.8761 36.51H48.5684V34.9639H49.3262V35.8345H51.7393V36.4311L50.2607 39.8159H49.4314L50.8761 36.51Z" fill="white"/>
<path d="M83.8721 28.1582C83.8721 23.0106 88.0449 18.8378 93.1926 18.8378C98.3402 18.8378 102.513 23.0106 102.513 28.1582C102.513 33.3059 98.3402 37.4789 93.1926 37.4789C88.0449 37.4789 83.8721 33.3059 83.8721 28.1582Z" fill="white"/>
</svg>
