<?xml version="1.0" encoding="utf-8"?>
<!-- Generator: Adobe Illustrator 16.0.0, SVG Export Plug-In . SVG Version: 6.00 Build 0)  -->
<!DOCTYPE svg PUBLIC "-//W3C//DTD SVG 1.1//EN" "http://www.w3.org/Graphics/SVG/1.1/DTD/svg11.dtd">
<svg version="1.1" id="Layer_1" xmlns="http://www.w3.org/2000/svg" xmlns:xlink="http://www.w3.org/1999/xlink" x="0px" y="0px"
	 width="106px" height="555px" viewBox="0 0 106 555" enable-background="new 0 0 106 555" xml:space="preserve">
<rect x="18.859" y="541.714" fill="#000000" width="4.174" height="6.321"/>
<rect x="61.54" y="541.711" fill="#000000" width="6.051" height="4.237"/>
<polygon fill="#000000" points="1.709,541.712 1.709,545.949 12.145,545.949 12.145,549.757 1.013,549.757 1.013,553.997 
	12.145,553.997 16.319,553.997 18.407,553.997 18.407,549.757 16.319,549.757 16.319,545.949 16.319,541.989 16.319,541.712 "/>
<polygon fill="#000000" points="55.787,541.712 55.039,546.227 51.448,541.712 44.809,541.712 44.809,553.997 45.238,553.997 
	48.981,553.997 48.981,545.738 55.939,553.997 61.438,553.997 58.563,550.466 60.113,541.712 "/>
<polygon fill="#000000" points="25.57,541.712 25.57,545.949 36.008,545.949 36.008,549.757 24.874,549.757 24.874,553.997 
	36.008,553.997 40.181,553.997 42.269,553.997 42.269,549.757 40.181,549.757 40.181,545.949 40.181,541.989 40.181,541.712 "/>
<path fill="#000000" d="M102.064,541.712h-7.775h-6.385v4.239h1.823v4.13h-3.479v3.916h7.653v-8.046h2.088v-0.001h4.869
	c0.495,0,1.445,0.073,1.445,1.485v6.562h4.174v-6.562C106.479,544.608,106.427,541.712,102.064,541.712"/>
<path fill="#000000" d="M84.406,553.996h-4.174v-6.574c0-1.412-0.951-1.482-1.444-1.482h-9.357v-7.794h4.176v3.557h6.386
	c4.362,0,4.414,2.896,4.414,5.72V553.996z"/>
<path fill="#000000" d="M1.014,348.918c0-0.597,0.48-1.082,1.075-1.082h65.07c6.134,0,12.394,4.93,12.394,10.848v62.269
	c0,6.041-6.26,10.849-12.394,10.849H2.089c-0.595,0-1.075-0.484-1.075-1.081v-29.892c0-0.6,0.48-1.082,1.075-1.082h46.937
	c0.592,0,1.074-0.485,1.074-1.081v-17.696c0-0.596-0.482-1.08-1.074-1.08H31.542c-0.594,0-1.076,0.484-1.076,1.08v8.448
	c0,0.597-0.479,1.079-1.075,1.079H2.089c-0.595,0-1.075-0.482-1.075-1.079V348.918z"/>
<path fill="#000000" d="M2.035,438.617l76.743,12.472c0.524,0.085,0.906,0.537,0.906,1.065v29.754c0,0.662-0.588,1.169-1.243,1.068
	l-46.833-7.141c-0.653-0.1-1.243,0.406-1.243,1.07v14.184c0,0.596,0.482,1.081,1.079,1.081h73.724c0.596,0,1.08,0.483,1.08,1.08
	v29.892c0,0.596-0.484,1.079-1.08,1.079H31.444c-0.597,0-1.079,0.485-1.079,1.082v4.002c0,0.597-0.484,1.082-1.082,1.082H1.862
	c-0.597,0-1.081-0.485-1.081-1.082v-89.622C0.781,439.018,1.378,438.512,2.035,438.617"/>
<path fill="#000000" d="M12.889,251.382h65.588c0.595,0,1.075,0.483,1.075,1.082v39.881c0,0.596-0.48,1.081-1.075,1.081H51.174
	c-0.593,0-1.074-0.485-1.074-1.081v-7.707c0-0.598-0.481-1.08-1.076-1.08H31.542c-0.593,0-1.075,0.482-1.075,1.08v12.654
	c0,0.539,0.397,0.996,0.929,1.069l47.227,6.523c0.534,0.073,0.93,0.532,0.93,1.069v29.873c0,0.657-0.575,1.16-1.222,1.072
	l-46.641-6.445c-0.647-0.088-1.223,0.416-1.223,1.073v6.554c0,0.597-0.482,1.081-1.078,1.081h-27.3
	c-0.595,0-1.075-0.484-1.075-1.081v-74.769C1.014,256.751,6.358,251.382,12.889,251.382"/>
<path fill="#000000" d="M2.09,199.47h59.819c9.745,0,17.644,7.936,17.644,17.723v25.461c0,0.596-0.482,1.081-1.076,1.081H51.176
	c-0.595,0-1.075-0.485-1.075-1.081v-10.172c0-0.599-0.483-1.082-1.077-1.082H2.09c-0.596,0-1.076-0.483-1.076-1.081v-29.767
	C1.014,199.953,1.494,199.47,2.09,199.47"/>
<path fill="#000000" d="M44.361,191.719H2.089c-0.593,0-1.077-0.485-1.077-1.082v-30.014c0-0.596,0.484-1.081,1.077-1.081h42.272
	c0.595,0,1.075,0.485,1.075,1.081v30.014C45.437,191.234,44.956,191.719,44.361,191.719"/>
<path fill="#000000" d="M50.231,38.227v81.228H30.486V33.631h15.169C48.182,33.631,50.231,35.688,50.231,38.227 M1.014,2.082
	v148.352c0,0.597,0.48,1.082,1.075,1.082h76.022c0.796,0,1.441-0.651,1.441-1.451V22.014C79.553,10.409,70.188,1,58.636,1H2.089
	C1.494,1,1.014,1.485,1.014,2.082"/>
</svg>
